<svg data-v-423bf9ae="" xmlns="http://www.w3.org/2000/svg" viewBox="0 0 384 90" class="iconLeftSlogan"><g data-v-423bf9ae="" id="5401067d-0a29-4dd2-93dc-194bd5b32d97" fill="#ffffff" transform="matrix(4.342490624047496,0,0,4.342490624047496,142.81078836457812,-1.5198721795775363)"><path d="M1.34 1.50L1.34 1.50Q1.53 1.36 1.72 1.36L1.72 1.36Q1.81 1.33 1.89 1.29Q1.97 1.26 2.04 1.23L2.04 1.23Q2.31 1.11 2.58 1.02Q2.86 0.92 3.15 0.90L3.15 0.90Q3.64 0.85 4.18 0.90Q4.72 0.94 5.22 1.10Q5.73 1.26 6.17 1.54Q6.61 1.82 6.90 2.24L6.90 2.24Q7.06 2.46 7.04 2.75Q7.03 3.04 6.92 3.33Q6.82 3.63 6.67 3.89Q6.52 4.16 6.41 4.34L6.41 4.34Q6.22 4.66 6.05 4.94Q5.88 5.22 5.70 5.49L5.70 5.49Q5.22 6.52 4.32 7.17Q3.42 7.83 2.18 8.04L2.18 8.04Q2.20 8.62 2.20 9.21L2.20 9.21Q2.20 9.80 2.20 10.39L2.20 10.39L2.20 10.42L2.18 10.43Q2.13 10.54 1.97 10.74Q1.82 10.95 1.65 11.09L1.65 11.09Q1.50 11.28 1.30 11.44Q1.11 11.59 0.99 11.52L0.99 11.52Q0.97 11.52 0.97 11.55L0.97 11.55L0.97 11.51Q0.95 11.47 0.95 11.43Q0.94 11.40 0.92 11.35L0.92 11.35Q0.87 11.41 0.81 11.46Q0.76 11.51 0.70 11.58L0.70 11.58Q0.60 11.38 0.59 11.03Q0.57 10.68 0.59 10.31Q0.62 9.94 0.65 9.60Q0.69 9.27 0.70 9.10L0.70 9.10Q0.77 7.85 0.71 6.62Q0.64 5.38 0.43 4.14L0.43 4.14Q0.34 3.65 0.22 3.14Q0.10 2.63 0.24 2.17L0.24 2.17L0.24 2.16L0.25 2.16Q0.35 1.88 0.56 1.67L0.56 1.67Q0.67 1.55 0.83 1.42Q0.98 1.29 1.18 1.32L1.18 1.32Q1.22 1.37 1.26 1.41Q1.30 1.46 1.34 1.50ZM4.63 2.39L4.86 2.18Q4.23 1.92 3.49 1.86Q2.76 1.79 2.20 1.88L2.20 1.88Q2.17 2.51 2.14 3.14Q2.10 3.77 2.07 4.40L2.07 4.40Q2.10 4.84 2.11 5.27Q2.13 5.70 2.14 6.15L2.14 6.15Q2.23 6.12 2.23 6.12L2.23 6.12L2.14 6.22Q2.14 6.27 2.15 6.32Q2.16 6.37 2.16 6.44L2.16 6.44Q2.18 6.38 2.21 6.33Q2.24 6.29 2.25 6.26L2.25 6.26Q2.27 6.22 2.30 6.30Q2.32 6.38 2.38 6.41L2.38 6.41Q2.49 6.48 2.65 6.47Q2.80 6.47 2.93 6.45L2.93 6.45Q3.28 6.44 3.62 6.41Q3.96 6.37 4.30 6.26L4.30 6.26Q4.54 6.19 4.69 6.10L4.69 6.10Q4.73 6.08 4.75 6.05Q4.77 6.02 4.80 5.99L4.80 5.99Q4.86 5.92 4.91 5.85Q4.96 5.78 5.01 5.71L5.01 5.71Q5.18 5.31 5.24 4.86Q5.29 4.41 5.25 3.96Q5.21 3.51 5.05 3.11Q4.90 2.70 4.63 2.39L4.63 2.39ZM8.12 6.82L8.12 6.82Q8.32 6.48 8.57 6.17Q8.83 5.87 9.13 5.62Q9.44 5.38 9.77 5.21Q10.11 5.05 10.44 5.00L10.44 5.00Q10.84 4.73 11.28 4.55Q11.72 4.37 12.03 4.52L12.03 4.52Q12.42 4.75 12.64 5.05L12.64 5.05Q12.80 5.10 12.92 5.18L12.92 5.18Q12.96 5.22 13.01 5.26Q13.05 5.31 13.09 5.36L13.09 5.36Q13.24 5.22 13.37 5.17Q13.50 5.11 13.52 5.25L13.52 5.25Q13.58 5.66 13.59 6.05Q13.61 6.45 13.59 6.86L13.59 6.86Q13.61 6.92 13.62 6.96Q13.62 7 13.62 7.04L13.62 7.04Q13.62 7.31 13.66 7.60Q13.69 7.90 13.57 8.12L13.57 8.12Q13.57 8.19 13.56 8.27Q13.55 8.34 13.55 8.41L13.55 8.41Q13.62 8.95 13.64 9.39L13.64 9.39Q13.66 9.53 13.69 9.67Q13.71 9.80 13.72 9.93L13.72 9.93Q13.73 10.01 13.79 10.08L13.79 10.08L13.73 10.14Q13.73 10.39 13.68 10.62Q13.62 10.85 13.45 11.06L13.45 11.06Q13.41 11.10 13.32 11.19Q13.23 11.28 13.13 11.37Q13.02 11.45 12.92 11.49Q12.82 11.52 12.75 11.45L12.75 11.45Q12.74 11.44 12.74 11.42L12.74 11.42Q12.74 11.42 12.73 11.41L12.73 11.41Q12.71 11.41 12.70 11.42L12.70 11.42L12.66 11.42Q12.56 11.42 12.53 11.40L12.53 11.40Q12.46 11.19 12.46 10.91L12.46 10.91Q12.46 10.64 12.43 10.44L12.43 10.44Q12.40 10.23 12.38 10.02Q12.36 9.81 12.33 9.59L12.33 9.59Q11.97 9.83 11.54 10.00Q11.10 10.16 10.61 10.30L10.61 10.30Q10.53 10.33 10.45 10.35Q10.37 10.37 10.29 10.40L10.29 10.40Q10.08 10.51 9.86 10.61Q9.65 10.70 9.43 10.74Q9.21 10.78 9.00 10.75Q8.79 10.72 8.58 10.57L8.58 10.57Q8.20 10.30 7.90 9.93Q7.59 9.56 7.43 9.13L7.43 9.13Q7.38 8.99 7.39 8.82Q7.41 8.65 7.46 8.47L7.46 8.47Q7.38 8.13 7.43 7.92L7.43 7.92Q7.52 7.62 7.70 7.34Q7.88 7.07 8.12 6.82ZM9.65 9.21L9.65 9.21Q9.81 9.24 10.14 9.21Q10.46 9.17 10.84 9.07Q11.21 8.97 11.59 8.82Q11.97 8.67 12.24 8.47L12.24 8.47Q12.21 8.15 12.19 7.81Q12.17 7.48 12.14 7.14L12.14 7.14Q12.12 7.03 12.12 6.92L12.12 6.92Q12.12 6.79 12.11 6.68L12.11 6.68L12.05 6.72Q12.04 6.65 12.04 6.57L12.04 6.57Q12.04 6.48 12.04 6.41L12.04 6.41Q12.01 6.34 11.98 6.28Q11.94 6.22 11.91 6.15L11.91 6.15L11.79 6.26Q11.75 6.19 11.75 6.10L11.75 6.10Q11.75 6.01 11.72 5.94L11.72 5.94Q11.47 5.85 11.24 5.80Q11.02 5.75 10.81 5.74L10.81 5.74Q10.61 5.74 10.42 5.77Q10.23 5.80 10.04 5.84L10.04 5.84Q9.48 6.06 8.93 6.82L8.93 6.82Q8.74 7.06 8.55 7.39L8.55 7.39Q8.53 7.81 8.64 8.22L8.64 8.22Q8.72 8.34 8.83 8.51Q8.93 8.68 9.06 8.83Q9.18 8.97 9.33 9.09Q9.48 9.20 9.65 9.21ZM15.27 5.00L15.20 5.05L15.20 5.08Q15.20 5.11 15.21 5.12Q15.22 5.14 15.22 5.17L15.22 5.17Q15.40 5.08 15.53 5.10L15.53 5.10Q15.89 5.39 16.16 5.74Q16.42 6.09 16.63 6.47Q16.84 6.85 17.03 7.25Q17.22 7.64 17.40 8.05L17.40 8.05Q17.44 8.09 17.47 8.15L17.47 8.15Q17.60 8.29 17.72 8.41Q17.84 8.54 17.95 8.65L17.95 8.65Q18.06 8.43 18.18 8.22Q18.30 8.01 18.42 7.81L18.42 7.81Q18.55 7.53 18.69 7.27Q18.83 7.01 18.98 6.76L18.98 6.76Q19.14 6.40 19.32 6.05L19.32 6.05Q19.40 5.88 19.58 5.68Q19.75 5.49 19.91 5.33L19.91 5.33L20.16 5.00Q20.19 4.97 20.32 4.83Q20.45 4.69 20.60 4.58Q20.75 4.48 20.85 4.47Q20.94 4.45 20.89 4.68L20.89 4.68Q20.66 5.18 20.40 5.66Q20.13 6.13 19.92 6.64L19.92 6.64Q19.60 7.38 19.33 8.13Q19.05 8.88 18.77 9.63L18.77 9.63Q18.80 9.72 18.83 9.83L18.83 9.83L18.84 9.83L18.83 9.84Q18.83 9.94 18.82 10.00L18.82 10.00Q18.70 10.19 18.52 10.40L18.52 10.40Q18.49 10.47 18.47 10.56L18.47 10.56Q18.40 10.71 18.35 10.84Q18.30 10.96 18.24 11.07L18.24 11.07Q18.17 11.26 18.12 11.40Q18.06 11.54 18.00 11.67Q17.95 11.80 17.89 11.97Q17.82 12.14 17.72 12.38L17.72 12.38Q17.61 12.67 17.55 12.97Q17.49 13.27 17.29 13.55L17.29 13.55Q17.26 13.58 17.13 13.73Q17.00 13.87 16.84 14Q16.69 14.13 16.58 14.16Q16.46 14.20 16.48 14.01L16.48 14.01Q16.48 13.99 16.48 13.97Q16.49 13.96 16.49 13.94L16.49 13.94Q16.35 14.01 16.21 14.01L16.21 14.01Q16.17 13.99 16.17 13.89L16.17 13.89Q16.23 13.57 16.34 13.26Q16.45 12.95 16.60 12.66L16.60 12.66Q16.60 12.46 16.67 12.18Q16.74 11.90 16.83 11.62Q16.91 11.34 17.00 11.10Q17.09 10.85 17.15 10.72L17.15 10.72L17.19 10.60Q17.08 10.49 16.91 10.23Q16.73 9.98 16.53 9.66Q16.32 9.34 16.11 8.99Q15.90 8.64 15.72 8.32L15.72 8.32Q15.61 8.16 15.51 8.02Q15.40 7.87 15.30 7.71L15.30 7.71Q14.88 7.27 14.57 6.80Q14.25 6.34 14.14 5.87L14.14 5.87Q14.14 5.85 14.13 5.84Q14.13 5.84 14.13 5.82L14.13 5.82L14.14 5.81Q14.17 5.64 14.32 5.42Q14.48 5.21 14.67 5.08L14.67 5.08Q14.78 4.94 14.94 4.84Q15.09 4.73 15.25 4.76L15.25 4.76Q15.27 4.83 15.27 4.89L15.27 4.89Q15.27 4.93 15.27 5.00L15.27 5.00ZM28.24 0.81L27.44 1.74Q27.33 1.74 27.27 1.72L27.27 1.72L27.24 1.76Q27.15 1.78 27.05 1.79Q26.96 1.81 26.85 1.83L26.85 1.83L26.81 1.83Q26.43 1.90 25.98 2.03Q25.54 2.16 25.07 2.34L25.07 2.34Q24.53 2.70 23.98 3.21L23.98 3.21Q23.80 3.70 23.69 4.21Q23.58 4.72 23.66 5.21L23.66 5.21Q24.05 5.22 24.49 5.11Q24.92 5.00 25.36 4.87Q25.80 4.75 26.24 4.65Q26.68 4.55 27.08 4.59L27.08 4.59Q27.19 4.62 27.33 4.66Q27.47 4.69 27.61 4.72L27.61 4.72Q27.99 4.68 28.25 4.70Q28.52 4.72 28.69 4.87L28.69 4.87Q28.84 4.90 28.88 4.96L28.88 4.96Q29.05 5.24 29.07 5.50Q29.09 5.75 29.01 5.99L29.01 5.99Q29.01 6.34 28.85 6.69Q28.70 7.04 28.46 7.36L28.46 7.36Q28.28 7.70 28.01 8.02Q27.73 8.33 27.44 8.62Q27.15 8.90 26.85 9.16Q26.56 9.42 26.33 9.65L26.33 9.65Q25.89 10.14 25.52 10.38Q25.14 10.63 24.72 10.70L24.72 10.70Q24.35 10.85 23.95 10.93L23.95 10.93Q23.93 10.93 23.89 10.94Q23.86 10.95 23.83 10.95L23.83 10.95Q23.72 11.03 23.67 11.07L23.67 11.07Q23.67 11.05 23.69 11.03Q23.70 11.00 23.70 10.98L23.70 10.98Q23.42 11.02 23.20 11.02L23.20 11.02Q22.97 11.02 22.76 10.99Q22.54 10.96 22.32 10.89Q22.09 10.82 21.80 10.74L21.80 10.74Q21.64 10.68 21.50 10.63Q21.35 10.57 21.25 10.43L21.25 10.43Q21.36 10.32 21.48 10.22Q21.59 10.12 21.70 10.01L21.70 10.01Q21.66 9.88 21.57 9.76L21.57 9.76Q21.59 9.63 21.68 9.48Q21.77 9.32 21.90 9.18Q22.04 9.04 22.19 8.95Q22.34 8.86 22.48 8.89L22.48 8.89L22.50 8.88Q22.50 8.90 22.53 8.93L22.53 8.93Q22.61 9.04 22.69 9.04L22.69 9.04L22.60 9.16Q22.61 9.24 22.67 9.31L22.67 9.31Q22.72 9.42 22.89 9.52L22.89 9.52L22.92 9.49Q23.46 9.60 23.93 9.62Q24.40 9.63 24.85 9.56L24.85 9.56Q25.07 9.35 25.28 9.13Q25.49 8.92 25.73 8.69L25.73 8.69L25.75 8.68Q25.77 8.65 25.81 8.62Q25.84 8.58 25.89 8.55L25.89 8.55L25.96 8.48Q26.07 8.37 26.19 8.26Q26.31 8.15 26.43 8.04L26.43 8.04Q26.47 7.99 26.52 7.96Q26.57 7.92 26.61 7.88L26.61 7.88Q26.74 7.42 26.73 6.96Q26.73 6.50 26.54 5.94L26.54 5.94L26.50 5.94L26.47 5.96L26.47 5.95Q25.97 6.05 25.48 6.20Q24.99 6.36 24.49 6.49Q24.00 6.62 23.51 6.69Q23.02 6.76 22.53 6.68L22.53 6.68Q22.37 6.65 22.23 6.58Q22.09 6.51 21.95 6.44L21.95 6.44Q21.78 6.37 21.72 6.21Q21.66 6.05 21.69 5.85L21.69 5.85Q21.63 5.67 21.66 5.46Q21.70 5.25 21.78 5.01L21.78 5.01Q21.80 4.80 21.82 4.59Q21.84 4.38 21.88 4.19Q21.91 4.00 21.94 3.87Q21.97 3.74 21.98 3.68L21.98 3.68Q21.99 3.64 22.04 3.56Q22.08 3.47 22.13 3.39Q22.18 3.30 22.22 3.24Q22.26 3.18 22.26 3.18L22.26 3.18Q22.47 2.83 22.78 2.55Q23.09 2.28 23.43 2.06Q23.77 1.85 24.14 1.66Q24.51 1.47 24.86 1.29L24.86 1.29Q25.19 1.12 25.49 0.94Q25.80 0.76 26.18 0.71L26.18 0.71Q26.35 0.70 26.52 0.73Q26.68 0.76 26.85 0.80L26.85 0.80Q26.94 0.81 27.03 0.82Q27.12 0.83 27.22 0.84L27.22 0.84Q27.45 0.80 27.71 0.79Q27.97 0.78 28.24 0.81L28.24 0.81ZM25.59 9.34L26.22 8.97Q26.26 8.88 26.30 8.79Q26.33 8.69 26.38 8.60L26.38 8.60Q26.17 8.78 25.98 8.97Q25.79 9.16 25.59 9.34L25.59 9.34ZM27.71 6.38L27.71 6.38Q27.68 6.36 27.67 6.32Q27.66 6.29 27.64 6.26L27.64 6.26Q27.62 6.71 27.51 7.17L27.51 7.17Q27.59 7.10 27.67 7.03Q27.75 6.96 27.83 6.89L27.83 6.89Q27.82 6.65 27.71 6.38ZM22.82 3.36L22.82 3.36Q23.11 3.00 23.51 2.67L23.51 2.67Q23.53 2.63 23.55 2.59Q23.58 2.55 23.60 2.51L23.60 2.51Q23.41 2.62 23.25 2.72Q23.10 2.83 23.00 2.90L23.00 2.90Q22.90 3.00 22.82 3.36ZM22.69 4.69L22.69 4.69Q22.72 4.83 22.78 4.90L22.78 4.90L22.90 4.31Q22.78 4.49 22.69 4.69ZM30.00 2.09L30.00 2.09Q29.99 2.02 29.97 1.97Q29.96 1.92 29.95 1.88L29.95 1.88L29.89 1.90Q29.90 1.88 29.91 1.83Q29.92 1.79 29.95 1.76L29.95 1.76Q29.99 1.65 30.09 1.50Q30.18 1.36 30.30 1.23Q30.42 1.11 30.56 1.03Q30.70 0.95 30.84 0.98L30.84 0.98Q30.87 1.04 30.88 1.08Q30.88 1.13 30.91 1.20L30.91 1.20Q31.07 1.04 31.23 0.93Q31.39 0.83 31.46 0.90L31.46 0.90L31.49 0.87L31.49 0.99L31.47 0.99Q31.44 1.32 31.40 1.60Q31.36 1.88 31.33 2.20L31.33 2.20Q31.30 2.52 31.33 2.84Q31.35 3.16 31.35 3.49L31.35 3.49Q31.33 3.85 31.32 4.20Q31.30 4.55 31.29 4.91L31.29 4.91L31.30 4.91Q31.39 5.12 31.44 5.35Q31.49 5.59 31.51 5.84L31.51 5.84Q31.89 5.59 32.31 5.42L32.31 5.42Q32.66 5.25 33.03 5.12Q33.39 5.00 33.77 4.96L33.77 4.96Q34.02 4.91 34.17 4.93L34.17 4.93L34.19 4.93Q34.20 4.93 34.21 4.93Q34.22 4.94 34.24 4.94L34.24 4.94Q34.26 5.01 34.24 5.06Q34.23 5.11 34.20 5.18L34.20 5.18Q34.31 5.15 34.46 5.13Q34.61 5.11 34.75 5.10L34.75 5.10Q34.96 4.96 35.01 5.08L35.01 5.08L35.08 5.08Q35.22 5.11 35.16 5.23Q35.10 5.35 35.07 5.42L35.07 5.42Q35.06 5.43 35.05 5.45Q35.04 5.46 35.03 5.47L35.03 5.47Q35.01 5.49 34.99 5.49L34.99 5.49Q34.94 6.12 35.01 6.73Q35.07 7.35 35.10 7.98L35.10 7.98L35.10 8.32Q35.11 8.36 35.11 8.40L35.11 8.40Q35.11 8.43 35.13 8.47L35.13 8.47Q35.17 8.76 35.25 9.13Q35.32 9.49 35.27 9.81L35.27 9.81L35.27 9.93Q35.25 10.01 35.13 10.18Q35.01 10.35 34.87 10.50Q34.72 10.65 34.57 10.73Q34.43 10.81 34.34 10.72L34.34 10.72Q34.24 10.54 34.22 10.32L34.22 10.32Q34.20 10.32 34.19 10.33L34.19 10.33Q34.19 10.14 34.10 9.93L34.10 9.93Q34.09 9.88 34.08 9.85Q34.08 9.81 34.06 9.77L34.06 9.77Q34.03 9.77 34.01 9.77Q33.98 9.76 33.96 9.73L33.96 9.73L33.96 9.51Q33.95 9.46 33.94 9.43Q33.94 9.39 33.92 9.35L33.92 9.35Q33.85 9.10 33.76 8.69Q33.67 8.27 33.60 7.83Q33.53 7.39 33.50 6.96Q33.46 6.54 33.47 6.26L33.47 6.26L33.47 6.24Q33.47 6.23 33.48 6.22Q33.49 6.20 33.49 6.19L33.49 6.19Q33.32 6.15 33.17 6.15L33.17 6.15L32.66 6.27Q32.38 6.41 32.10 6.59Q31.82 6.76 31.53 6.93L31.53 6.93Q31.51 7.28 31.50 7.62Q31.49 7.95 31.49 8.26L31.49 8.26Q31.50 8.34 31.51 8.42Q31.51 8.50 31.54 8.58L31.54 8.58Q31.53 8.55 31.53 8.53L31.53 8.53Q31.53 8.50 31.54 8.53L31.54 8.53Q31.63 8.85 31.69 9.26Q31.75 9.67 31.60 10.00L31.60 10.00Q31.47 10.22 31.25 10.46Q31.02 10.70 30.74 10.72L30.74 10.72Q30.65 10.68 30.60 10.49L30.60 10.49Q30.45 10.71 30.22 10.88Q29.99 11.06 29.88 10.95L29.88 10.95Q29.85 10.77 29.88 10.58Q29.90 10.39 29.93 10.21L29.93 10.21Q29.93 8.60 29.85 6.96L29.85 6.96Q29.81 6.41 29.81 5.81L29.81 5.81Q29.81 5.19 29.83 4.56Q29.85 3.92 29.90 3.29Q29.95 2.66 30.00 2.09ZM36.25 7.81L36.25 7.81Q36.18 7.25 36.22 6.72L36.22 6.72L36.18 6.76Q36.18 6.52 36.18 6.32Q36.19 6.12 36.23 5.94Q36.27 5.77 36.37 5.61Q36.47 5.45 36.67 5.28L36.67 5.28Q36.74 5.22 36.83 5.15Q36.92 5.08 37.03 5.04L37.03 5.04L37.35 4.73Q37.38 4.82 37.40 4.91Q37.42 5.00 37.44 5.08L37.44 5.08Q37.58 4.97 37.69 4.93Q37.80 4.90 37.83 5.03L37.83 5.03Q37.81 5.14 37.81 5.24Q37.80 5.35 37.80 5.46L37.80 5.46Q37.79 6.02 37.78 6.58Q37.77 7.14 37.79 7.70L37.79 7.70Q37.83 8.25 37.91 8.79Q37.98 9.34 38.11 9.91L38.11 9.91Q38.12 9.91 38.15 9.88L38.15 9.88Q38.15 9.91 38.14 9.95Q38.14 9.98 38.14 10.01L38.14 10.01Q38.11 10.09 38.00 10.25Q37.90 10.40 37.76 10.55Q37.62 10.70 37.48 10.79Q37.34 10.88 37.24 10.84L37.24 10.84Q37.13 10.93 37.02 10.98Q36.90 11.02 36.83 10.95L36.83 10.95Q36.82 10.91 36.81 10.87Q36.81 10.84 36.79 10.79L36.79 10.79Q36.58 10.93 36.48 10.84L36.48 10.84Q36.47 10.77 36.47 10.68L36.47 10.68Q36.47 10.61 36.46 10.53L36.46 10.53Q36.41 10.43 36.38 10.25Q36.34 10.07 36.33 9.86Q36.32 9.66 36.30 9.48Q36.29 9.30 36.29 9.21L36.29 9.21Q36.27 9.02 36.27 8.83L36.27 8.83Q36.27 8.65 36.27 8.46L36.27 8.46Q36.26 8.30 36.25 8.13Q36.25 7.97 36.25 7.81ZM36.55 2.88L36.62 2.83Q36.64 2.80 36.64 2.77L36.64 2.77Q36.64 2.73 36.65 2.70L36.65 2.70Q36.76 2.45 36.99 2.21Q37.21 1.97 37.49 1.90L37.49 1.90L37.52 1.90Q37.59 1.92 37.60 1.99L37.60 1.99L37.60 2.17Q37.72 2.09 37.79 2.07Q37.87 2.06 37.90 2.17L37.90 2.17Q37.93 2.39 37.93 2.59L37.93 2.59Q37.93 2.79 38.00 2.80L38.00 2.80L37.76 3.08Q37.73 3.28 37.67 3.46Q37.62 3.65 37.51 3.81L37.51 3.81Q37.48 3.85 37.44 3.91Q37.39 3.98 37.32 4.05L37.32 4.05Q37.31 4.06 37.31 4.07L37.31 4.07L37.31 4.09L37.30 4.10Q37.30 4.12 37.28 4.12L37.28 4.12Q37.28 4.12 37.28 4.13L37.28 4.13Q37.24 4.19 37.13 4.33Q37.02 4.48 36.88 4.62Q36.75 4.76 36.61 4.83Q36.47 4.90 36.39 4.82L36.39 4.82Q36.37 4.34 36.37 3.84L36.37 3.84Q36.37 3.33 36.55 2.88L36.55 2.88ZM42.78 4.09L42.78 4.09Q42.87 4.09 43.11 4.12Q43.34 4.14 43.62 4.21Q43.89 4.28 44.12 4.41Q44.35 4.54 44.39 4.72L44.39 4.72Q44.53 4.87 44.63 5.08L44.63 5.08Q44.93 5.70 44.76 6.17L44.76 6.17Q44.83 6.19 44.89 6.20Q44.95 6.22 45.01 6.24L45.01 6.24Q45.04 6.37 44.98 6.50Q44.91 6.62 44.81 6.73Q44.70 6.85 44.58 6.94Q44.45 7.03 44.37 7.08L44.37 7.08Q44.13 7.22 43.79 7.25Q43.46 7.27 43.13 7.27L43.13 7.27Q42.55 7.34 41.99 7.46Q41.44 7.59 40.88 7.73L40.88 7.73Q40.61 7.80 40.35 7.88Q40.10 7.97 39.83 8.04L39.83 8.04Q40.08 8.69 40.63 9.13L40.63 9.13Q41.12 9.41 41.73 9.48Q42.35 9.55 42.92 9.51L42.92 9.51L43.39 9.38Q43.41 9.37 43.37 9.38Q43.32 9.39 43.25 9.41Q43.18 9.42 43.13 9.44Q43.08 9.45 43.12 9.44L43.12 9.44Q43.50 9.34 43.90 9.25Q44.30 9.17 44.67 9.03L44.67 9.03Q44.79 8.95 44.91 8.86Q45.02 8.76 45.18 8.71L45.18 8.71Q45.22 8.69 45.27 8.69Q45.32 8.68 45.36 8.69L45.36 8.69Q45.39 8.81 45.39 8.86L45.39 8.86Q45.32 9.11 45.12 9.30Q44.93 9.49 44.73 9.63L44.73 9.63Q44.46 9.77 44.18 9.88L44.18 9.88Q44.17 9.90 44.16 9.90L44.16 9.90Q43.83 10.09 43.46 10.20Q43.08 10.30 42.71 10.36L42.71 10.36Q42.38 10.42 41.99 10.44L41.99 10.44Q41.24 10.57 40.68 10.48Q40.11 10.39 39.69 10.01L39.69 10.01Q39.41 9.84 39.21 9.60Q39.00 9.35 38.91 9.02L38.91 9.02Q38.86 8.92 38.86 8.83L38.86 8.83Q38.86 8.74 38.88 8.64L38.88 8.64Q38.78 8.37 38.70 8.02L38.70 8.02Q38.63 7.77 38.70 7.50Q38.78 7.24 38.82 6.96L38.82 6.96Q38.86 6.66 39.04 6.37Q39.21 6.08 39.41 5.82L39.41 5.82Q39.76 5.36 40.12 5.05Q40.49 4.75 40.89 4.55Q41.29 4.35 41.76 4.25Q42.22 4.14 42.78 4.09ZM39.79 6.82L39.79 6.82Q39.79 6.92 39.80 7Q39.82 7.08 39.84 7.18L39.84 7.18Q40.08 7.07 40.33 6.99Q40.59 6.90 40.85 6.83L40.85 6.83Q41.38 6.66 41.92 6.54Q42.46 6.43 42.83 6.33L42.83 6.33Q43.06 6.26 43.30 6.20Q43.54 6.15 43.78 6.10L43.78 6.10Q43.76 6.06 43.75 6.03Q43.74 5.99 43.72 5.95L43.72 5.95Q43.55 5.59 43.25 5.40Q42.94 5.21 42.53 5.18L42.53 5.18Q42.11 5.14 41.70 5.26Q41.29 5.38 40.92 5.61Q40.56 5.84 40.26 6.15Q39.97 6.45 39.79 6.82ZM39.97 5.82L39.97 5.82Q40.15 5.66 40.33 5.51Q40.52 5.36 40.71 5.22L40.71 5.22Q40.26 5.40 40.04 5.73L40.04 5.73Q40.01 5.75 40.01 5.77Q40.00 5.80 39.97 5.82ZM46.16 7.41L46.16 7.41Q46.12 6.65 46.13 5.92Q46.14 5.18 46.20 4.42L46.20 4.42Q46.20 4.31 46.20 4.19L46.20 4.19Q46.20 4.06 46.21 3.95L46.21 3.95Q46.24 3.46 46.23 2.90Q46.23 2.34 46.33 1.85L46.33 1.85Q46.35 1.78 46.49 1.60Q46.63 1.43 46.79 1.27L46.79 1.27Q46.82 1.20 46.84 1.14Q46.87 1.08 46.91 1.01L46.91 1.01Q47.05 0.81 47.24 0.62Q47.43 0.42 47.68 0.35L47.68 0.35L47.75 0.35Q47.82 0.38 47.84 0.43L47.84 0.43Q47.89 0.77 47.83 1.13Q47.77 1.50 47.71 1.82L47.71 1.82Q47.61 2.45 47.50 3.07Q47.39 3.68 47.29 4.31L47.29 4.31Q47.28 5.57 47.40 6.80Q47.52 8.04 47.74 9.25L47.74 9.25L47.81 9.20Q47.81 9.25 47.80 9.30Q47.80 9.34 47.80 9.39L47.80 9.39Q47.77 9.48 47.67 9.63Q47.57 9.77 47.43 9.93L47.43 9.93Q47.45 10.00 47.45 10.08L47.45 10.08Q47.45 10.15 47.45 10.22L47.45 10.22Q47.45 10.28 47.46 10.30L47.46 10.30Q47.43 10.32 47.42 10.33Q47.42 10.35 47.39 10.36L47.39 10.36Q47.33 10.46 47.22 10.61Q47.11 10.75 46.98 10.88Q46.86 11.00 46.74 11.07Q46.62 11.13 46.54 11.06L46.54 11.06Q46.52 11.06 46.52 11.07L46.52 11.07L46.52 11.05Q46.45 10.63 46.40 10.21Q46.34 9.79 46.30 9.37L46.30 9.37Q46.28 9.30 46.28 9.23Q46.27 9.17 46.26 9.10L46.26 9.10Q46.19 8.68 46.16 8.26Q46.14 7.84 46.16 7.41ZM55.12 2.84L55.12 2.84Q55.12 2.91 55.11 2.98Q55.10 3.05 55.09 3.12L55.09 3.12Q55.08 3.28 55.08 3.44L55.08 3.44Q55.08 3.60 55.08 3.74L55.08 3.74Q55.05 4.45 55.03 5.14Q55.02 5.82 54.99 6.52L54.99 6.52Q55.01 6.73 55.03 6.94Q55.05 7.14 55.08 7.34L55.08 7.34L55.10 7.32Q55.08 7.35 55.08 7.36L55.08 7.36Q55.08 7.48 55.09 7.53L55.09 7.53Q55.10 7.69 55.11 7.83Q55.12 7.98 55.15 8.13L55.15 8.13L55.23 8.72Q55.26 8.89 55.24 9.07Q55.23 9.25 55.24 9.42L55.24 9.42Q55.30 9.63 55.30 9.73L55.30 9.73Q55.29 9.81 55.18 9.96Q55.08 10.11 54.95 10.26Q54.82 10.40 54.68 10.49Q54.54 10.58 54.43 10.56L54.43 10.56Q54.39 10.58 54.33 10.56L54.33 10.56Q54.32 10.58 54.31 10.59Q54.29 10.60 54.28 10.63L54.28 10.63L54.28 10.53Q54.26 10.49 54.25 10.44Q54.24 10.39 54.22 10.33L54.22 10.33Q54.17 10.35 54.11 10.32L54.11 10.32L54.10 10.33L54.10 10.29Q53.97 9.87 53.93 9.38L53.93 9.38Q53.55 9.79 53.13 9.98L53.13 9.98Q52.49 10.30 51.89 10.45Q51.30 10.60 50.58 10.67L50.58 10.67Q50.29 10.70 50.00 10.65Q49.71 10.60 49.46 10.47Q49.21 10.35 49.01 10.14Q48.80 9.94 48.69 9.66L48.69 9.66Q48.58 9.38 48.71 9.02Q48.85 8.65 49.08 8.30L49.08 8.30Q49.15 8.15 49.22 8.02Q49.29 7.88 49.35 7.78L49.35 7.78Q49.59 7.31 49.99 6.87Q50.39 6.44 50.85 6.08Q51.32 5.71 51.85 5.42Q52.37 5.14 52.86 4.96L52.86 4.96Q53.05 4.89 53.31 4.88Q53.58 4.87 53.84 4.93L53.84 4.93Q53.86 4.69 53.87 4.45Q53.89 4.21 53.91 3.98L53.91 3.98Q53.94 3.61 53.97 3.27Q54.00 2.93 54.08 2.60L54.08 2.60Q54.07 2.11 54.18 1.67Q54.29 1.23 54.73 0.88L54.73 0.88Q54.81 0.81 54.91 0.74Q55.01 0.67 55.12 0.67L55.12 0.67Q55.23 0.63 55.33 0.64L55.33 0.64Q55.41 0.71 55.42 0.91Q55.43 1.11 55.40 1.37L55.40 1.37Q55.41 1.51 55.39 1.69Q55.37 1.88 55.33 2.07Q55.29 2.27 55.23 2.46Q55.17 2.66 55.12 2.84ZM53.86 8.12L53.86 8.12Q53.79 7.62 53.76 7.12Q53.73 6.62 53.76 6.12L53.76 6.12L53.69 6.12L53.61 6.17Q53.59 6.17 53.59 6.19L53.59 6.19Q53.56 6.17 53.52 6.13L53.52 6.13Q53.45 6.15 53.38 6.15Q53.31 6.16 53.24 6.16L53.24 6.16Q52.91 6.23 52.51 6.38Q52.12 6.54 51.75 6.75Q51.38 6.97 51.06 7.24Q50.75 7.50 50.55 7.80Q50.36 8.11 50.33 8.42Q50.30 8.74 50.50 9.06L50.50 9.06Q50.64 9.28 50.89 9.29Q51.14 9.30 51.35 9.25L51.35 9.25Q51.53 9.21 51.84 9.11Q52.15 9.00 52.51 8.84Q52.86 8.68 53.22 8.49Q53.58 8.30 53.86 8.12ZM50.33 7.34L50.33 7.34Q50.23 7.45 50.11 7.59Q49.99 7.73 49.88 7.88L49.88 7.88Q49.83 8.02 49.80 8.16L49.80 8.16Q50.15 7.67 50.66 7.15Q51.17 6.64 51.77 6.22L51.77 6.22Q51.48 6.30 51.15 6.54Q50.82 6.79 50.33 7.34Z"></path></g><g data-v-423bf9ae="" id="5a3ea21b-7977-4b9a-8162-b098ae97a2f0" transform="matrix(3.860175764033615,0,0,3.860175764033615,0.23718777546216074,-16.421744111390325)" stroke="none" fill="#E46948"><path d="M12.289 5.343v19.9L1 13.954V5.343zm1-1H0v10.026l13.289 13.289zM31 5.343v8.612L19.711 25.243v-19.9zm1-1H18.711v23.315L32 14.369z"></path></g><g data-v-423bf9ae="" id="4b042f8a-52eb-4553-92d1-bb100d0187c1" fill="#ffffff" transform="matrix(0.8580613127759055,0,0,0.8580613127759055,142.81343013100707,57.16839686074955)"><path d="M0.83 10.82L0.83 10.82Q0.83 10.53 1.02 10.53L1.02 10.53Q1.20 10.53 1.25 10.67L1.25 10.67Q1.39 11.00 1.51 11.25Q1.62 11.49 1.89 11.85Q2.16 12.21 2.46 12.44Q2.77 12.67 3.25 12.84Q3.74 13.01 4.31 13.01L4.31 13.01Q5.36 13.01 6.00 12.45Q6.64 11.90 6.64 11.00L6.64 11.00Q6.64 10.35 6.20 9.90Q5.77 9.46 5.21 9.27Q4.65 9.09 3.79 8.77Q2.93 8.46 2.38 8.13L2.38 8.13Q1.11 7.38 1.11 6.08L1.11 6.08Q1.11 4.83 2.01 4.08Q2.91 3.33 4.35 3.33L4.35 3.33Q4.89 3.33 5.62 3.56Q6.36 3.79 6.37 3.79L6.37 3.79Q6.41 3.79 6.52 3.74Q6.64 3.68 6.69 3.68L6.69 3.68Q6.87 3.68 6.90 3.79L6.90 3.79Q7.20 5.49 7.20 5.70L7.20 5.70Q7.20 6.09 7 6.09L7 6.09Q6.87 6.09 6.80 5.89L6.80 5.89Q6.64 5.49 6.48 5.24Q6.31 4.98 6.24 4.91Q6.17 4.84 5.88 4.58L5.88 4.58Q5.12 3.91 4.05 3.91L4.05 3.91Q3.18 3.91 2.59 4.33Q2.00 4.75 2.00 5.46L2.00 5.46Q2.00 6.09 2.35 6.50Q2.69 6.90 3.26 7.13Q3.84 7.35 4.47 7.55Q5.10 7.74 5.80 8.09Q6.51 8.44 6.97 8.93L6.97 8.93Q7.53 9.53 7.53 10.43L7.53 10.43Q7.53 11.90 6.59 12.76Q5.66 13.62 4.27 13.62L4.27 13.62Q3.30 13.62 2.72 13.52Q2.13 13.41 1.51 13.09L1.51 13.09Q1.33 12.98 1.08 12.00Q0.83 11.02 0.83 10.82ZM15.62 3.65L15.62 3.65Q15.62 3.50 16.02 3.50L16.02 3.50Q16.16 3.50 16.66 3.53Q17.16 3.56 17.60 3.56L17.60 3.56Q17.86 3.56 18.11 3.54Q18.35 3.53 18.83 3.53L18.83 3.53Q19.14 3.53 19.14 3.72L19.14 3.72Q19.14 3.96 18.65 3.96L18.65 3.96Q18.37 3.96 18.24 4.54Q18.12 5.11 18.12 5.71L18.12 5.71L18.12 6.23Q18.12 6.57 18.10 6.99Q18.09 7.42 18.09 7.52L18.09 7.52Q18.09 7.87 18.17 7.97Q18.26 8.06 18.56 8.06L18.56 8.06Q18.59 8.06 19.11 8.06Q19.63 8.05 20.86 8.05L20.86 8.05Q20.97 8.05 21.24 8.06Q21.50 8.06 22.11 8.07Q22.72 8.08 23.51 8.08L23.51 8.08Q23.60 8.08 23.63 7.84L23.63 7.84Q23.66 7.56 23.66 6.13L23.66 6.13L23.66 5.38Q23.66 4.83 23.54 4.51Q23.42 4.19 23.25 4.09Q23.07 3.99 22.90 3.96Q22.72 3.93 22.60 3.88Q22.48 3.84 22.48 3.70Q22.48 3.56 23.03 3.56L23.03 3.56Q23.17 3.56 23.63 3.57Q24.09 3.58 24.39 3.58L24.39 3.58Q24.53 3.58 24.86 3.57Q25.20 3.56 25.48 3.56L25.48 3.56Q25.80 3.56 25.80 3.74Q25.80 3.92 25.61 3.92L25.61 3.92Q25.21 3.92 25.01 4.16Q24.81 4.40 24.81 4.79L24.81 4.79Q24.81 5.25 24.79 6.42Q24.77 7.59 24.77 8.19L24.77 8.19Q24.77 8.51 24.75 9.20Q24.74 9.90 24.74 10.29L24.74 10.29L24.74 10.81Q24.74 11.23 24.77 11.58Q24.79 11.94 24.79 12.10L24.79 12.10Q24.79 13.01 25.97 13.13L25.97 13.13Q26.14 13.13 26.14 13.29L26.14 13.29Q26.14 13.38 26.00 13.41Q25.86 13.44 25.45 13.44L25.45 13.44Q25.30 13.44 24.94 13.40Q24.58 13.37 24.37 13.37L24.37 13.37Q24.12 13.37 23.77 13.40Q23.41 13.44 23.06 13.44L23.06 13.44Q22.89 13.44 22.82 13.44Q22.75 13.44 22.67 13.42Q22.60 13.40 22.57 13.36Q22.55 13.33 22.55 13.26L22.55 13.26Q22.55 13.17 22.69 13.10Q22.83 13.03 23.00 12.99Q23.17 12.95 23.33 12.83Q23.49 12.71 23.52 12.53L23.52 12.53Q23.62 12.03 23.62 11.51L23.62 11.51Q23.62 11.37 23.63 11.12Q23.63 10.86 23.63 10.75L23.63 10.75Q23.63 10.50 23.65 9.93Q23.66 9.35 23.66 9.03L23.66 9.03Q23.66 8.82 23.49 8.74Q23.32 8.65 22.78 8.65L22.78 8.65Q22.57 8.65 21.81 8.68L21.81 8.68L21.06 8.69Q20.44 8.69 19.67 8.67Q18.90 8.65 18.48 8.65L18.48 8.65Q18.27 8.65 18.20 8.74Q18.13 8.82 18.13 9.17Q18.13 9.52 18.10 10.08Q18.07 10.64 18.07 10.89L18.07 10.89L18.07 11.49Q18.07 12.10 18.19 12.39Q18.30 12.68 18.73 12.96L18.73 12.96Q18.84 13.03 19.33 13.03L19.33 13.03Q19.43 13.03 19.52 13.08Q19.60 13.13 19.60 13.19L19.60 13.19Q19.60 13.44 19.15 13.44L19.15 13.44Q18.73 13.44 18.46 13.41Q18.19 13.38 17.99 13.38L17.99 13.38Q17.60 13.38 17.15 13.42Q16.70 13.45 16.48 13.45L16.48 13.45Q15.82 13.45 15.82 13.24L15.82 13.24Q15.82 13.12 15.95 13.07Q16.09 13.02 16.25 13.00Q16.42 12.98 16.60 12.82Q16.79 12.66 16.86 12.35L16.86 12.35Q16.90 12.11 16.97 10.91Q17.04 9.70 17.04 8.61L17.04 8.61L17.04 7.81Q17.04 7.63 17.04 7.12Q17.05 6.61 17.05 6.30L17.05 6.30Q17.05 5.24 16.97 4.63L16.97 4.63Q16.93 4.28 16.60 4.09Q16.27 3.89 15.92 3.89L15.92 3.89Q15.78 3.89 15.70 3.80Q15.62 3.71 15.62 3.65ZM33.70 3.71L33.70 3.71Q33.70 3.50 34.09 3.50L34.09 3.50Q34.23 3.50 34.73 3.53Q35.24 3.56 35.67 3.56L35.67 3.56Q35.94 3.56 36.18 3.54Q36.43 3.53 36.90 3.53L36.90 3.53Q37.28 3.53 37.28 3.72L37.28 3.72Q37.28 3.84 36.64 4.10L36.64 4.10Q36.19 4.28 36.19 5.71L36.19 5.71Q36.19 7.60 36.17 9.05Q36.15 10.50 36.15 10.89L36.15 10.89Q36.15 12.07 36.50 12.59L36.50 12.59Q36.81 13.02 37.17 13.02L37.17 13.02Q37.20 13.02 37.31 13.03Q37.42 13.03 37.45 13.03L37.45 13.03Q37.55 13.03 37.65 13.08Q37.74 13.13 37.74 13.19L37.74 13.19Q37.74 13.34 37.67 13.39Q37.59 13.44 37.39 13.44L37.39 13.44Q36.97 13.44 36.62 13.41Q36.26 13.38 36.06 13.38L36.06 13.38Q35.67 13.38 35.21 13.42Q34.75 13.45 34.52 13.45L34.52 13.45Q33.89 13.45 33.89 13.24L33.89 13.24Q33.89 13.12 34.03 13.07Q34.16 13.02 34.33 13.00Q34.50 12.98 34.68 12.82Q34.86 12.66 34.93 12.35L34.93 12.35Q34.96 12.25 35.02 10.76Q35.08 9.27 35.08 8.61L35.08 8.61L35.08 7.81Q35.08 7.63 35.09 7.12Q35.10 6.61 35.10 6.30L35.10 6.30L35.10 5.66Q35.10 5.04 35.04 4.63L35.04 4.63Q35 4.30 34.67 4.12Q34.34 3.93 33.99 3.92L33.99 3.92Q33.70 3.91 33.70 3.71ZM45.29 3.65L45.29 3.65Q45.29 3.46 45.68 3.46L45.68 3.46Q45.74 3.46 45.86 3.47Q45.99 3.49 46.06 3.49L46.06 3.49Q46.10 3.49 47.38 3.52Q48.65 3.56 49.48 3.56L49.48 3.56Q49.77 3.56 50.92 3.53Q52.08 3.50 52.28 3.50L52.28 3.50Q52.54 3.50 52.54 3.82L52.54 3.82Q52.54 3.91 52.46 4.38Q52.37 4.84 52.37 5.25L52.37 5.25Q52.37 5.38 52.30 5.47Q52.23 5.56 52.15 5.56L52.15 5.56Q51.94 5.56 51.94 5.26L51.94 5.26Q51.94 4.89 51.70 4.58Q51.46 4.27 51.11 4.26L51.11 4.26Q49.85 4.16 49.18 4.16L49.18 4.16L48.82 4.16Q48.09 4.16 47.97 4.26Q47.85 4.37 47.82 5.01L47.82 5.01Q47.77 6.02 47.77 7.35L47.77 7.35Q47.77 8.05 48.03 8.06L48.03 8.06L48.38 8.06L48.97 8.06L49.41 8.06Q50.25 8.06 50.53 8.01Q50.81 7.95 51.03 7.80L51.03 7.80Q51.30 7.62 51.35 7.28L51.35 7.28Q51.39 7.04 51.55 7.04L51.55 7.04Q51.67 7.04 51.70 7.08Q51.73 7.13 51.73 7.27L51.73 7.27Q51.73 7.36 51.67 7.91Q51.62 8.46 51.62 8.74L51.62 8.74Q51.62 9.00 51.64 9.24Q51.66 9.48 51.66 9.59L51.66 9.59Q51.66 9.94 51.56 9.94L51.56 9.94Q51.35 9.94 51.25 9.60L51.25 9.60Q51.06 9.02 50.90 8.92L50.90 8.92Q50.61 8.72 49.56 8.72L49.56 8.72Q49.14 8.72 48.88 8.72Q48.62 8.72 48.55 8.71Q48.47 8.71 48.42 8.71Q48.37 8.71 48.33 8.71L48.33 8.71Q47.75 8.71 47.75 8.97L47.75 8.97Q47.75 9.38 47.74 9.99Q47.73 10.60 47.73 10.99L47.73 10.99L47.73 11.55Q47.73 12.56 48.06 12.66L48.06 12.66Q48.41 12.77 48.66 12.77L48.66 12.77Q49.71 12.77 50.50 12.67Q51.30 12.57 51.70 12.42Q52.09 12.28 52.36 12.10Q52.63 11.93 52.70 11.78Q52.78 11.63 52.86 11.54Q52.93 11.44 53.02 11.44L53.02 11.44Q53.19 11.44 53.19 11.68L53.19 11.68Q53.19 12.28 52.58 12.89Q51.98 13.51 51.53 13.51L51.53 13.51Q50.53 13.51 49.26 13.44Q47.99 13.37 47.68 13.37L47.68 13.37Q47.29 13.37 46.70 13.43Q46.12 13.50 45.78 13.50L45.78 13.50Q45.49 13.50 45.49 13.36L45.49 13.36Q45.49 13.23 45.49 13.19Q45.49 13.15 45.53 13.12Q45.57 13.09 45.62 13.08Q45.67 13.08 45.80 13.03Q45.93 12.99 46.09 12.92L46.09 12.92Q46.42 12.75 46.53 12.26Q46.63 11.77 46.63 10.21L46.63 10.21L46.63 8.47Q46.63 8.09 46.66 7.29Q46.68 6.50 46.68 6.05L46.68 6.05Q46.68 5.67 46.65 4.77L46.65 4.77Q46.63 4.37 46.30 4.14Q45.96 3.92 45.51 3.91L45.51 3.91Q45.29 3.91 45.29 3.65ZM60.75 3.71L60.75 3.71Q60.75 3.46 61.12 3.46L61.12 3.46Q61.18 3.46 61.31 3.47Q61.43 3.49 61.50 3.49L61.50 3.49Q61.64 3.49 62.03 3.51Q62.41 3.54 62.72 3.54L62.72 3.54Q63.15 3.54 63.64 3.51Q64.13 3.49 64.19 3.49L64.19 3.49Q64.43 3.49 64.43 3.63L64.43 3.63Q64.43 3.82 64.26 3.88Q64.09 3.95 63.89 3.97Q63.69 3.99 63.50 4.28Q63.31 4.56 63.28 5.14L63.28 5.14Q63.25 5.68 63.21 8.19Q63.17 10.70 63.17 10.99L63.17 10.99L63.17 11.55Q63.17 12.56 63.50 12.66L63.50 12.66Q63.85 12.77 64.11 12.77L64.11 12.77Q65.16 12.77 65.95 12.67Q66.74 12.57 67.14 12.42Q67.54 12.28 67.80 12.10Q68.07 11.93 68.14 11.78Q68.22 11.63 68.30 11.54Q68.38 11.44 68.46 11.44L68.46 11.44Q68.63 11.44 68.63 11.68L68.63 11.68Q68.63 12.28 68.03 12.89Q67.42 13.51 66.98 13.51L66.98 13.51Q65.97 13.51 64.70 13.44Q63.43 13.37 63.13 13.37L63.13 13.37Q62.73 13.37 62.22 13.43Q61.71 13.48 61.38 13.48L61.38 13.48Q60.97 13.48 60.97 13.31L60.97 13.31Q60.97 13.22 61.05 13.15Q61.12 13.09 61.19 13.09L61.19 13.09Q61.40 13.09 61.60 12.95L61.60 12.95Q61.85 12.75 61.96 12.23Q62.08 11.70 62.08 10.21L62.08 10.21L62.08 8.47Q62.08 8.09 62.10 7.29Q62.12 6.50 62.12 6.05L62.12 6.05Q62.12 5.67 62.09 4.77L62.09 4.77Q62.08 4.37 61.74 4.14Q61.40 3.92 60.96 3.91L60.96 3.91Q60.82 3.91 60.78 3.86Q60.75 3.81 60.75 3.71ZM76.19 3.64L76.19 3.64Q76.19 3.51 76.31 3.49Q76.43 3.47 76.90 3.47L76.90 3.47L78.12 3.47Q78.47 3.47 79.41 3.44Q80.35 3.42 80.85 3.42L80.85 3.42Q81.82 3.42 82.78 3.71Q83.75 4.00 84.56 4.56Q85.37 5.11 85.88 6.00Q86.38 6.89 86.38 7.98L86.38 7.98Q86.38 8.96 86.25 9.68Q86.11 10.40 85.81 10.93Q85.50 11.45 85.19 11.78Q84.88 12.11 84.35 12.56L84.35 12.56Q83.93 12.89 83.13 13.19Q82.33 13.48 81.49 13.48L81.49 13.48Q81.41 13.48 80.07 13.45Q78.72 13.41 78.13 13.41L78.13 13.41Q77.64 13.41 77.22 13.45Q76.80 13.48 76.73 13.48L76.73 13.48Q76.40 13.48 76.40 13.30L76.40 13.30Q76.40 13.19 76.45 13.14Q76.50 13.09 76.66 13.05Q76.82 13.01 76.89 12.98L76.89 12.98Q77.11 12.88 77.30 12.61Q77.49 12.33 77.49 12.07L77.49 12.07Q77.49 11.28 77.50 10.07Q77.50 8.85 77.50 8.27L77.50 8.27Q77.50 7.77 77.50 6.70Q77.49 5.63 77.49 4.72L77.49 4.72Q77.49 4.48 77.26 4.23Q77.03 3.99 76.75 3.98L76.75 3.98Q76.55 3.96 76.46 3.95Q76.37 3.93 76.28 3.86Q76.19 3.78 76.19 3.64ZM78.67 11.47L78.67 11.47Q78.67 11.73 78.67 11.90Q78.68 12.07 78.73 12.21Q78.78 12.35 78.81 12.40Q78.83 12.46 78.97 12.53Q79.11 12.60 79.19 12.62Q79.27 12.64 79.52 12.71Q79.77 12.78 79.94 12.82L79.94 12.82Q80.43 12.96 80.96 12.96L80.96 12.96L81.24 12.96Q82.19 12.96 82.87 12.69Q83.54 12.42 84.15 11.83L84.15 11.83Q85.19 10.84 85.19 8.61L85.19 8.61Q85.19 7.49 84.75 6.58Q84.31 5.67 83.59 5.13Q82.88 4.59 82.05 4.30Q81.23 4.02 80.39 4.02L80.39 4.02Q80.01 4.02 79.83 4.02Q79.66 4.02 79.43 4.05Q79.20 4.09 79.12 4.11Q79.04 4.13 78.93 4.25Q78.82 4.37 78.80 4.45Q78.78 4.54 78.74 4.78Q78.71 5.03 78.71 5.21Q78.71 5.39 78.71 5.80L78.71 5.80Q78.71 6.10 78.69 7.24Q78.68 8.39 78.68 8.48L78.68 8.48Q78.68 9.32 78.67 10.30Q78.67 11.28 78.67 11.47ZM104.26 3.81L104.26 3.81Q104.26 3.65 104.42 3.61Q104.58 3.57 105.13 3.57L105.13 3.57Q105.21 3.57 105.51 3.58Q105.81 3.60 105.94 3.60L105.94 3.60Q106.09 3.60 106.50 3.59Q106.92 3.58 107.13 3.58L107.13 3.58Q107.83 3.58 107.83 3.75L107.83 3.75Q107.83 3.91 107.53 4.01Q107.24 4.12 107.24 4.24L107.24 4.24Q107.24 4.38 107.33 4.61Q107.42 4.83 107.51 4.97Q107.60 5.11 107.79 5.38Q107.97 5.64 108.00 5.70L108.00 5.70Q108.47 6.45 108.98 7.14Q109.49 7.83 109.56 7.83L109.56 7.83Q109.65 7.83 109.77 7.66Q109.90 7.50 110.12 7.13Q110.35 6.75 110.50 6.52L110.50 6.52Q110.54 6.45 110.70 6.22Q110.87 5.98 110.93 5.88Q110.99 5.78 111.12 5.58Q111.24 5.38 111.30 5.27Q111.36 5.17 111.43 5.02Q111.51 4.87 111.54 4.77Q111.57 4.68 111.57 4.59L111.57 4.59Q111.57 4.14 111.09 4.03L111.09 4.03Q111.03 4.02 110.93 4.00Q110.82 3.99 110.77 3.98Q110.73 3.96 110.66 3.93Q110.59 3.91 110.56 3.86Q110.53 3.81 110.53 3.74L110.53 3.74Q110.53 3.57 110.92 3.57L110.92 3.57Q110.99 3.57 111.18 3.58Q111.37 3.58 111.50 3.58L111.50 3.58Q111.82 3.58 112.27 3.59Q112.73 3.60 112.98 3.60L112.98 3.60Q113.67 3.60 113.67 3.81L113.67 3.81Q113.67 3.86 113.58 3.91Q113.50 3.95 113.34 4.02Q113.19 4.09 113.06 4.19L113.06 4.19Q112.49 4.63 111.38 6.31Q110.26 7.99 110.11 8.19L110.11 8.19Q109.89 8.47 109.83 8.81Q109.77 9.14 109.77 9.95L109.77 9.95Q109.77 10.14 109.78 10.73Q109.79 11.33 109.79 11.58L109.79 11.58L109.79 11.91Q109.79 12.38 109.95 12.64Q110.11 12.91 110.25 12.96Q110.39 13.01 110.53 13.01L110.53 13.01Q110.56 13.01 110.67 13.01Q110.78 13.02 110.81 13.02L110.81 13.02Q110.91 13.02 110.96 13.08Q111.02 13.15 111.02 13.22L111.02 13.22Q111.02 13.36 110.95 13.40Q110.88 13.44 110.68 13.44L110.68 13.44Q110.61 13.44 110.07 13.43Q109.54 13.43 109.28 13.43L109.28 13.43Q108.79 13.43 108.39 13.45Q107.98 13.48 107.74 13.48L107.74 13.48Q107.35 13.48 107.35 13.33L107.35 13.33Q107.35 13.20 107.43 13.15Q107.51 13.10 107.69 13.09Q107.87 13.08 107.95 13.05L107.95 13.05Q108.54 12.87 108.54 12.19L108.54 12.19Q108.54 12.11 108.55 11.92Q108.56 11.73 108.56 11.12Q108.57 10.50 108.57 9.35L108.57 9.35Q108.57 9.13 108.53 8.97Q108.50 8.81 108.45 8.65Q108.40 8.50 108.21 8.20Q108.02 7.91 107.84 7.64Q107.66 7.36 107.22 6.72Q106.78 6.08 106.37 5.46L106.37 5.46Q105.94 4.80 105.59 4.46Q105.24 4.12 105.05 4.05Q104.86 3.99 104.61 3.99L104.61 3.99Q104.26 3.99 104.26 3.81ZM121.16 8.69L121.16 8.69Q121.16 6.34 122.57 4.84Q123.98 3.33 126.57 3.33L126.57 3.33Q127.78 3.33 128.74 3.68Q129.71 4.03 130.27 4.54Q130.83 5.05 131.21 5.71Q131.59 6.37 131.73 6.92Q131.87 7.48 131.87 7.95L131.87 7.95Q131.87 9.86 131.12 11.16Q130.38 12.47 129.17 13.07Q127.96 13.66 126.38 13.66L126.38 13.66Q124.71 13.66 123.50 12.94Q122.29 12.21 121.72 11.10Q121.16 10.00 121.16 8.69ZM122.39 7.98L122.39 7.98Q122.39 8.54 122.54 9.19Q122.70 9.84 123.05 10.54Q123.40 11.23 123.89 11.78Q124.39 12.33 125.15 12.69Q125.92 13.05 126.83 13.05L126.83 13.05Q127.30 13.05 127.83 12.90Q128.35 12.75 128.87 12.45Q129.39 12.14 129.79 11.70Q130.20 11.26 130.46 10.62Q130.72 9.98 130.72 9.24L130.72 9.24Q130.72 6.71 129.39 5.30Q128.06 3.89 126.10 3.89L126.10 3.89Q124.56 3.89 123.47 4.93Q122.39 5.96 122.39 7.98ZM139.76 3.68L139.76 3.68Q139.76 3.61 139.78 3.58Q139.79 3.56 139.86 3.53Q139.93 3.50 140.08 3.50Q140.24 3.50 140.73 3.53Q141.22 3.56 141.67 3.56L141.67 3.56Q141.95 3.56 142.18 3.54Q142.41 3.53 142.98 3.53L142.98 3.53Q143.28 3.53 143.28 3.72L143.28 3.72Q143.28 3.85 143.18 3.88Q143.08 3.91 142.93 3.92Q142.79 3.93 142.64 4.02Q142.49 4.10 142.39 4.43Q142.30 4.76 142.30 5.32L142.30 5.32L142.30 5.71Q142.30 6.37 142.29 7.37Q142.28 8.37 142.28 8.74L142.28 8.74Q142.28 9.17 142.29 9.39Q142.30 9.62 142.32 10.04Q142.35 10.47 142.40 10.72Q142.45 10.96 142.56 11.32Q142.67 11.68 142.83 11.89Q143.00 12.10 143.24 12.35Q143.49 12.60 143.81 12.73Q144.13 12.87 144.56 12.96Q145.00 13.05 145.53 13.05L145.53 13.05Q145.98 13.05 146.23 13.03Q146.48 13.02 146.92 12.94Q147.36 12.87 147.62 12.72Q147.88 12.57 148.21 12.27Q148.54 11.97 148.72 11.54Q148.90 11.10 149.03 10.43Q149.16 9.76 149.16 8.90L149.16 8.90Q149.16 7.49 149.15 6.75Q149.14 6.01 149.14 5.94L149.14 5.94Q149.14 5.45 149.12 5.17Q149.10 4.89 148.98 4.55Q148.86 4.21 148.64 4.06L148.64 4.06Q148.50 3.96 148.27 3.93Q148.05 3.89 147.91 3.87Q147.77 3.85 147.77 3.75L147.77 3.75Q147.77 3.53 148.05 3.53L148.05 3.53Q148.13 3.53 148.60 3.54Q149.06 3.56 149.13 3.56L149.13 3.56Q149.46 3.56 149.84 3.54Q150.22 3.51 150.32 3.51L150.32 3.51Q150.61 3.51 150.61 3.70L150.61 3.70Q150.61 3.81 150.31 3.98Q150.01 4.16 149.94 4.30L149.94 4.30Q149.79 4.59 149.79 5.22L149.79 5.22Q149.79 5.32 149.79 5.62Q149.80 5.92 149.80 6.16L149.80 6.16Q149.80 8.85 149.58 10.28Q149.35 11.70 148.90 12.36Q148.44 13.01 147.53 13.40L147.53 13.40Q146.79 13.71 145.53 13.71L145.53 13.71Q143.19 13.71 142.21 12.81L142.21 12.81Q141.44 12.10 141.26 11.09Q141.08 10.09 141.08 7.64L141.08 7.64L141.08 7.41Q141.08 6.86 141.09 6.20Q141.11 5.54 141.11 5.39L141.11 5.39Q141.11 4.62 140.92 4.33Q140.74 4.05 140.07 3.95L140.07 3.95Q139.76 3.91 139.76 3.68ZM158.17 3.70L158.17 3.70Q158.17 3.47 158.58 3.47L158.58 3.47L160.90 3.47Q161.22 3.47 161.64 3.45Q162.06 3.43 162.30 3.43L162.30 3.43Q163.56 3.43 164.46 4.07Q165.35 4.70 165.35 5.78L165.35 5.78Q165.35 6.50 165.08 7.03Q164.81 7.57 164.48 7.81Q164.15 8.05 163.88 8.22Q163.60 8.40 163.60 8.46L163.60 8.46Q163.60 8.62 164.78 10.27Q165.96 11.91 166.39 12.38L166.39 12.38Q166.92 13.03 167.68 13.03L167.68 13.03Q167.87 13.03 167.87 13.20L167.87 13.20Q167.87 13.41 167.71 13.48Q167.54 13.55 166.84 13.55L166.84 13.55Q166.18 13.55 165.63 13.23L165.63 13.23Q164.93 12.82 163.27 10.09L163.27 10.09Q163.17 9.94 163.13 9.87L163.13 9.87Q162.46 8.78 162.09 8.78L162.09 8.78L161.80 8.78L160.94 8.78Q160.78 8.78 160.74 8.92Q160.71 9.06 160.71 9.77L160.71 9.77Q160.71 10.44 160.71 10.88Q160.71 11.31 160.71 11.43Q160.72 11.55 160.72 11.63Q160.72 11.70 160.72 11.75L160.72 11.75Q160.72 12.32 160.99 12.63Q161.25 12.95 161.58 13.00Q161.91 13.05 162.18 13.11Q162.44 13.17 162.44 13.31L162.44 13.31Q162.44 13.54 162.19 13.54L162.19 13.54Q162.18 13.54 161.22 13.49Q160.27 13.44 160.19 13.44L160.19 13.44Q159.78 13.44 159.22 13.47Q158.66 13.50 158.65 13.50L158.65 13.50Q158.35 13.50 158.35 13.27L158.35 13.27Q158.35 13.12 158.54 13.05Q158.72 12.99 158.94 12.96Q159.17 12.94 159.35 12.66Q159.53 12.38 159.53 11.86L159.53 11.86Q159.53 11.49 159.54 9.90Q159.54 8.30 159.54 7.45L159.54 7.45Q159.54 6.58 159.54 5.86Q159.53 5.14 159.53 5.08L159.53 5.08Q159.53 4.56 159.32 4.29Q159.11 4.02 158.85 3.98Q158.59 3.95 158.38 3.89Q158.17 3.84 158.17 3.70ZM160.71 5.54L160.71 5.94Q160.71 7.38 160.72 7.72Q160.73 8.06 160.82 8.12L160.82 8.12Q161.03 8.25 161.42 8.25L161.42 8.25L161.56 8.25L161.97 8.25Q163.16 8.25 163.67 7.70Q164.18 7.15 164.18 6.30L164.18 6.30Q164.18 5.43 163.50 4.72Q162.82 4.00 161.45 4.00L161.45 4.00Q160.93 4.00 160.82 4.28Q160.71 4.55 160.71 5.54L160.71 5.54ZM185.21 3.72L185.21 3.72Q185.21 3.50 185.53 3.50L185.53 3.50Q185.57 3.50 185.68 3.49Q185.79 3.49 186.05 3.49L186.05 3.49Q186.12 3.49 186.43 3.51Q186.75 3.53 186.89 3.53L186.89 3.53Q187.19 3.53 188.08 3.51Q188.96 3.49 189.20 3.49L189.20 3.49Q190.51 3.49 191.46 4.15Q192.42 4.82 192.42 6.06L192.42 6.06Q192.42 6.75 192.16 7.29Q191.91 7.83 191.55 8.13Q191.20 8.44 190.76 8.64Q190.32 8.85 189.97 8.91Q189.63 8.97 189.36 8.97L189.36 8.97Q188.92 8.97 188.45 8.87Q187.99 8.76 187.99 8.65L187.99 8.65Q187.99 8.44 188.17 8.44L188.17 8.44Q188.24 8.44 188.46 8.50Q188.68 8.55 188.89 8.55L188.89 8.55Q189.21 8.55 189.57 8.46Q189.94 8.37 190.33 8.17Q190.72 7.97 190.97 7.55Q191.23 7.14 191.23 6.59L191.23 6.59Q191.23 5.66 190.47 4.85Q189.71 4.05 188.38 4.05L188.38 4.05Q187.95 4.05 187.80 4.30Q187.64 4.56 187.64 5.47L187.64 5.47Q187.64 8.39 187.63 8.80Q187.61 9.21 187.61 11.26L187.61 11.26Q187.61 12.49 188.19 12.87L188.19 12.87Q188.34 12.96 188.57 12.99Q188.80 13.02 188.96 13.01Q189.11 13.01 189.23 13.07Q189.35 13.13 189.35 13.30L189.35 13.30Q189.35 13.54 189.03 13.54Q188.71 13.54 187.89 13.50Q187.08 13.47 187.03 13.47L187.03 13.47Q186.89 13.47 186.47 13.50Q186.06 13.52 185.72 13.52L185.72 13.52Q185.29 13.52 185.29 13.37L185.29 13.37Q185.29 13.29 185.31 13.23Q185.33 13.17 185.35 13.14Q185.37 13.10 185.44 13.08Q185.51 13.05 185.54 13.03Q185.57 13.02 185.67 13.00Q185.78 12.98 185.82 12.96L185.82 12.96Q185.85 12.95 185.91 12.94Q185.96 12.94 185.98 12.93Q186.00 12.92 186.05 12.89Q186.10 12.85 186.13 12.79Q186.16 12.73 186.21 12.62Q186.26 12.52 186.31 12.35L186.31 12.35Q186.41 12.08 186.47 10.25Q186.52 8.41 186.52 7.41L186.52 7.41Q186.52 6.54 186.51 5.80Q186.51 5.07 186.51 5.03L186.51 5.03Q186.51 4.65 186.27 4.28Q186.03 3.91 185.49 3.91L185.49 3.91Q185.21 3.91 185.21 3.72ZM198.81 13.33L198.81 13.33Q198.81 13.13 199.02 13.06L199.02 13.06Q199.47 12.89 199.81 12.31Q200.14 11.73 201.47 8.83L201.47 8.83Q202.85 5.87 203.90 3.63L203.90 3.63Q203.99 3.42 204.07 3.36Q204.15 3.30 204.32 3.30L204.32 3.30Q204.44 3.30 204.48 3.36Q204.53 3.42 204.67 3.82L204.67 3.82Q204.75 4.06 204.81 4.23Q204.88 4.40 205.02 4.77Q205.16 5.15 205.32 5.56L205.32 5.56Q205.77 6.66 206.87 9.22Q207.97 11.77 208.07 11.98L208.07 11.98Q208.31 12.46 208.60 12.71Q208.89 12.95 209.11 12.97Q209.33 12.99 209.47 13.04Q209.62 13.09 209.62 13.26L209.62 13.26Q209.62 13.47 209.24 13.47L209.24 13.47Q209.09 13.47 208.64 13.43Q208.19 13.38 207.98 13.38L207.98 13.38Q207.72 13.38 207.30 13.41Q206.88 13.44 206.68 13.44L206.68 13.44Q206.25 13.44 206.13 13.40Q206.01 13.37 206.01 13.24L206.01 13.24Q206.01 13.15 206.12 13.08Q206.23 13.02 206.36 13.00Q206.49 12.98 206.60 12.87Q206.71 12.77 206.71 12.59L206.71 12.59Q206.71 12.28 206.36 11.33Q206.01 10.37 205.77 9.93L205.77 9.93Q205.65 9.69 205.20 9.69L205.20 9.69Q205.13 9.69 204.58 9.70Q204.04 9.72 203.50 9.72L203.50 9.72L202.76 9.72Q202.13 9.72 201.97 9.79Q201.81 9.86 201.68 10.12L201.68 10.12Q201.60 10.30 201.40 10.70Q201.21 11.10 201.14 11.26Q201.07 11.41 200.96 11.65Q200.86 11.90 200.82 12.05Q200.79 12.19 200.79 12.31L200.79 12.31Q200.79 12.63 200.95 12.80Q201.11 12.96 201.31 12.98Q201.50 13.01 201.66 13.06Q201.82 13.12 201.82 13.26L201.82 13.26Q201.82 13.36 201.78 13.40Q201.74 13.45 201.59 13.45L201.59 13.45Q201.50 13.45 201.10 13.45Q200.70 13.44 200.42 13.44L200.42 13.44Q200.12 13.44 199.73 13.47Q199.35 13.50 199.22 13.50L199.22 13.50Q198.81 13.50 198.81 13.33ZM202.33 8.71L202.33 8.71Q202.33 8.89 202.45 8.93Q202.58 8.97 203.04 8.97L203.04 8.97L203.48 8.97L204.81 8.96Q205.35 8.96 205.35 8.74L205.35 8.74Q205.35 8.55 204.67 7.01Q203.98 5.46 203.80 5.46L203.80 5.46Q203.67 5.46 203.00 7.01Q202.33 8.55 202.33 8.71ZM215.14 3.81L215.14 3.81Q215.14 3.65 215.30 3.61Q215.46 3.57 216.01 3.57L216.01 3.57Q216.09 3.57 216.39 3.58Q216.69 3.60 216.82 3.60L216.82 3.60Q216.97 3.60 217.38 3.59Q217.80 3.58 218.01 3.58L218.01 3.58Q218.71 3.58 218.71 3.75L218.71 3.75Q218.71 3.91 218.41 4.01Q218.12 4.12 218.12 4.24L218.12 4.24Q218.12 4.38 218.21 4.61Q218.30 4.83 218.39 4.97Q218.48 5.11 218.67 5.38Q218.85 5.64 218.88 5.70L218.88 5.70Q219.35 6.45 219.86 7.14Q220.37 7.83 220.44 7.83L220.44 7.83Q220.53 7.83 220.65 7.66Q220.78 7.50 221.00 7.13Q221.23 6.75 221.38 6.52L221.38 6.52Q221.42 6.45 221.58 6.22Q221.75 5.98 221.81 5.88Q221.87 5.78 222.00 5.58Q222.12 5.38 222.18 5.27Q222.24 5.17 222.31 5.02Q222.39 4.87 222.42 4.77Q222.45 4.68 222.45 4.59L222.45 4.59Q222.45 4.14 221.97 4.03L221.97 4.03Q221.91 4.02 221.81 4.00Q221.70 3.99 221.65 3.98Q221.61 3.96 221.54 3.93Q221.47 3.91 221.44 3.86Q221.41 3.81 221.41 3.74L221.41 3.74Q221.41 3.57 221.80 3.57L221.80 3.57Q221.87 3.57 222.06 3.58Q222.25 3.58 222.38 3.58L222.38 3.58Q222.70 3.58 223.15 3.59Q223.61 3.60 223.86 3.60L223.86 3.60Q224.55 3.60 224.55 3.81L224.55 3.81Q224.55 3.86 224.46 3.91Q224.38 3.95 224.22 4.02Q224.07 4.09 223.94 4.19L223.94 4.19Q223.37 4.63 222.26 6.31Q221.14 7.99 220.99 8.19L220.99 8.19Q220.77 8.47 220.71 8.81Q220.65 9.14 220.65 9.95L220.65 9.95Q220.65 10.14 220.66 10.73Q220.67 11.33 220.67 11.58L220.67 11.58L220.67 11.91Q220.67 12.38 220.83 12.64Q220.99 12.91 221.13 12.96Q221.27 13.01 221.41 13.01L221.41 13.01Q221.44 13.01 221.55 13.01Q221.66 13.02 221.69 13.02L221.69 13.02Q221.79 13.02 221.84 13.08Q221.90 13.15 221.90 13.22L221.90 13.22Q221.90 13.36 221.83 13.40Q221.76 13.44 221.56 13.44L221.56 13.44Q221.49 13.44 220.95 13.43Q220.42 13.43 220.16 13.43L220.16 13.43Q219.67 13.43 219.27 13.45Q218.86 13.48 218.62 13.48L218.62 13.48Q218.23 13.48 218.23 13.33L218.23 13.33Q218.23 13.20 218.31 13.15Q218.39 13.10 218.57 13.09Q218.75 13.08 218.83 13.05L218.83 13.05Q219.42 12.87 219.42 12.19L219.42 12.19Q219.42 12.11 219.43 11.92Q219.44 11.73 219.44 11.12Q219.45 10.50 219.45 9.35L219.45 9.35Q219.45 9.13 219.41 8.97Q219.38 8.81 219.33 8.65Q219.28 8.50 219.09 8.20Q218.90 7.91 218.72 7.64Q218.54 7.36 218.10 6.72Q217.66 6.08 217.25 5.46L217.25 5.46Q216.82 4.80 216.47 4.46Q216.12 4.12 215.93 4.05Q215.74 3.99 215.49 3.99L215.49 3.99Q215.14 3.99 215.14 3.81Z"></path></g></svg>